<?xml version="1.0" standalone="no"?>
<!DOCTYPE svg PUBLIC "-//W3C//DTD SVG 20010904//EN"
 "http://www.w3.org/TR/2001/REC-SVG-20010904/DTD/svg10.dtd">
<svg version="1.0" xmlns="http://www.w3.org/2000/svg"
 width="512.000000pt" height="512.000000pt" viewBox="0 0 512.000000 512.000000"
 preserveAspectRatio="xMidYMid meet">

<g transform="translate(0.000000,512.000000) scale(0.100000,-0.100000)"
fill="#000000" stroke="none">
<path d="M308 4191 c-145 -47 -255 -161 -292 -306 -12 -45 -16 -112 -16 -277
l0 -218 2360 0 2360 0 0 204 c0 112 -5 227 -10 257 -24 123 -105 240 -212 302
-104 60 24 57 -2148 56 -1897 0 -1988 -1 -2042 -18z"/>
<path d="M3830 3054 c-95 -20 -186 -51 -264 -90 l-70 -34 -1748 0 -1748 0 0
-688 c0 -733 1 -745 49 -841 37 -72 117 -148 199 -188 l76 -38 1503 -3 1502
-2 78 -57 c419 -302 995 -263 1374 94 97 92 161 179 224 308 212 428 122 927
-226 1261 -153 146 -334 240 -539 278 -102 20 -320 20 -410 0z m381 -399 c239
-62 438 -267 495 -510 24 -105 15 -275 -21 -379 -68 -195 -227 -353 -427 -423
-97 -35 -280 -44 -378 -19 -298 76 -505 321 -527 625 -8 119 15 229 74 350 92
191 290 337 503 371 74 12 204 5 281 -15z m-2617 -681 c23 -23 23 -225 0 -248
-14 -14 -70 -16 -469 -16 -399 0 -455 2 -469 16 -23 23 -23 225 0 248 14 14
70 16 469 16 399 0 455 -2 469 -16z"/>
<path d="M3907 2434 c-4 -4 -7 -74 -7 -155 l0 -148 -152 -3 -153 -3 -3 -132
-3 -133 156 0 155 0 0 -149 c0 -115 3 -151 14 -160 9 -8 54 -11 132 -9 l119 3
5 155 5 155 150 3 c104 2 152 6 157 15 13 20 10 231 -4 245 -8 8 -58 12 -160
12 l-147 0 -3 153 -3 152 -126 3 c-69 1 -128 -1 -132 -4z"/>
</g>
</svg>
