<?xml version="1.0" standalone="no"?>
<!DOCTYPE svg PUBLIC "-//W3C//DTD SVG 20010904//EN"
 "http://www.w3.org/TR/2001/REC-SVG-20010904/DTD/svg10.dtd">
<svg version="1.0" xmlns="http://www.w3.org/2000/svg"
 width="512.000000pt" height="512.000000pt" viewBox="0 0 512.000000 512.000000"
 preserveAspectRatio="xMidYMid meet">

<g transform="translate(0.000000,512.000000) scale(0.100000,-0.100000)"
fill="#000000" stroke="none">
<path d="M0 2560 l0 -2560 2560 0 2560 0 0 2560 0 2560 -2560 0 -2560 0 0
-2560z m1530 1580 l0 -210 -675 0 -675 0 6 28 c14 63 76 175 125 227 80 84
164 132 274 155 22 4 244 8 493 9 l452 1 0 -210z m1880 -17 c0 -200 3 -233 19
-268 10 -22 28 -48 39 -58 51 -46 59 -46 790 -47 l692 0 0 -340 0 -340 -707 0
-706 0 -43 -25 c-28 -16 -49 -39 -63 -68 -21 -43 -21 -47 -21 -1125 l0 -1082
-850 0 -850 0 0 1790 0 1790 850 0 850 0 0 -227z m1194 199 c130 -49 235 -144
290 -264 19 -40 37 -85 40 -100 l6 -28 -675 0 -675 0 0 211 0 210 478 -3 c464
-4 479 -4 536 -26z m-3074 -912 l0 -340 -680 0 -680 0 0 340 0 340 680 0 680
0 0 -340z m0 -850 l0 -340 -680 0 -680 0 0 340 0 340 680 0 680 0 0 -340z
m3420 0 l0 -340 -680 0 -680 0 0 340 0 340 680 0 680 0 0 -340z m-3420 -850
l0 -340 -680 0 -680 0 0 340 0 340 680 0 680 0 0 -340z m3420 0 l0 -340 -680
0 -680 0 0 340 0 340 680 0 680 0 0 -340z m-3420 -731 l0 -210 -477 3 c-465 4
-480 4 -537 26 -130 49 -235 144 -290 264 -19 40 -37 85 -40 101 l-6 27 675 0
675 0 0 -211z m3404 184 c-3 -16 -21 -61 -40 -101 -55 -120 -160 -215 -290
-264 -57 -22 -72 -22 -536 -26 l-478 -3 0 210 0 211 675 0 675 0 -6 -27z"/>
</g>
</svg>
