<?xml version="1.0" standalone="no"?>
<!DOCTYPE svg PUBLIC "-//W3C//DTD SVG 20010904//EN"
 "http://www.w3.org/TR/2001/REC-SVG-20010904/DTD/svg10.dtd">
<svg version="1.0" xmlns="http://www.w3.org/2000/svg"
 width="512.000000pt" height="512.000000pt" viewBox="0 0 512.000000 512.000000"
 preserveAspectRatio="xMidYMid meet">

<g transform="translate(0.000000,512.000000) scale(0.100000,-0.100000)"
fill="#000000" stroke="none">
<path d="M3490 5019 c-129 -55 -246 -111 -259 -124 -17 -16 -25 -36 -25 -57 0
-31 183 -485 208 -517 6 -8 26 -20 44 -28 45 -19 97 3 117 50 17 41 15 50 -49
201 -26 60 -45 111 -42 113 6 6 190 -86 287 -144 196 -117 443 -331 594 -517
217 -269 380 -599 458 -931 47 -199 61 -323 61 -545 0 -278 -30 -466 -116
-728 -196 -599 -637 -1098 -1213 -1373 -704 -336 -1545 -292 -2206 117 -101
63 -144 70 -184 30 -34 -34 -40 -68 -20 -109 12 -26 39 -48 118 -94 315 -187
619 -293 992 -345 137 -19 514 -16 655 5 495 76 907 263 1295 589 382 321 681
808 804 1308 88 361 94 747 16 1131 -146 722 -660 1387 -1331 1724 l-127 64
54 23 c30 14 85 37 122 53 85 36 111 65 104 119 -7 50 -34 76 -83 81 -32 4
-81 -14 -274 -96z"/>
<path d="M2253 5025 c-1048 -133 -1906 -904 -2148 -1930 -48 -205 -60 -314
-60 -575 1 -280 13 -380 75 -625 97 -380 307 -776 556 -1044 l55 -60 -161 -3
-162 -3 -24 -28 c-34 -39 -33 -96 2 -131 l27 -26 294 0 c192 0 301 4 315 11
42 23 48 62 48 339 0 297 -4 320 -65 345 -30 13 -39 13 -69 1 -54 -22 -60 -44
-66 -216 l-5 -155 -73 85 c-177 205 -351 512 -436 770 -89 270 -121 465 -120
750 1 375 75 694 239 1022 363 727 1071 1214 1875 1287 187 18 297 15 571 -14
63 -7 67 -6 97 21 44 41 47 96 7 136 -37 37 -128 49 -415 53 -173 3 -278 0
-357 -10z"/>
<path d="M2391 4279 c-128 -12 -243 -37 -386 -84 -761 -248 -1263 -996 -1205
-1794 30 -419 192 -788 477 -1092 267 -283 604 -462 999 -529 143 -25 397 -27
542 -5 913 137 1567 950 1502 1868 -17 241 -76 453 -185 672 -176 350 -463
631 -817 800 -293 139 -608 195 -927 164z m509 -222 c190 -45 356 -115 510
-214 356 -231 597 -581 692 -1010 19 -84 22 -129 22 -313 0 -201 -1 -223 -28
-334 -129 -549 -504 -969 -1025 -1150 -186 -65 -280 -80 -506 -80 -170 -1
-216 3 -307 22 -489 102 -885 406 -1106 847 -63 127 -93 210 -128 360 -27 112
-28 134 -28 335 0 184 3 229 22 313 150 675 660 1148 1347 1251 17 2 120 3
230 1 171 -3 215 -7 305 -28z"/>
<path d="M2509 3595 c-35 -19 -49 -62 -49 -150 l0 -72 -83 -5 c-154 -8 -283
-95 -350 -236 -31 -64 -32 -73 -35 -212 -3 -128 -1 -153 18 -209 53 -157 177
-260 342 -281 40 -5 152 -10 248 -10 199 -1 233 -9 287 -74 41 -50 53 -97 53
-202 0 -122 -12 -160 -69 -215 -63 -61 -100 -69 -311 -69 -211 0 -248 8 -311
69 -54 52 -69 94 -69 188 0 74 -14 109 -51 129 -44 22 -77 17 -111 -16 l-30
-31 3 -112 c4 -103 7 -118 36 -178 36 -72 104 -147 167 -184 53 -31 146 -55
212 -55 l52 0 4 -91 c3 -88 4 -92 36 -120 42 -38 82 -38 124 0 32 28 33 32 36
120 l4 91 52 0 c163 0 305 90 379 240 l32 65 0 170 0 170 -32 66 c-55 113
-169 202 -291 228 -29 6 -142 11 -251 11 -196 0 -198 0 -252 28 -40 20 -61 39
-84 76 -28 46 -30 58 -33 159 -4 126 8 173 61 227 62 64 88 70 317 70 178 0
210 -3 245 -19 92 -42 134 -116 135 -233 0 -67 3 -80 25 -106 32 -39 74 -48
114 -28 47 25 54 47 49 165 -3 94 -7 114 -35 173 -66 141 -196 228 -350 236
l-83 5 0 72 c0 90 -14 131 -51 150 -35 19 -66 18 -100 0z"/>
<path d="M1604 3448 c-68 -63 -168 -201 -224 -310 -191 -369 -201 -804 -29
-1176 49 -106 148 -256 227 -342 57 -62 61 -65 107 -65 39 0 51 5 71 28 44 51
34 83 -56 192 -174 209 -260 420 -276 681 -20 304 86 599 305 847 63 71 68
111 22 158 -45 44 -89 40 -147 -13z"/>
<path d="M3369 3461 c-46 -47 -41 -87 22 -158 330 -374 400 -857 187 -1292
-43 -87 -95 -163 -185 -268 -62 -74 -69 -113 -29 -160 20 -23 32 -28 71 -28
46 0 50 3 107 65 157 172 272 396 325 635 24 112 29 353 9 476 -43 257 -169
517 -335 690 -59 62 -70 69 -104 69 -29 0 -46 -7 -68 -29z"/>
</g>
</svg>
